<?xml version="1.0" standalone="no"?>
<!DOCTYPE svg PUBLIC "-//W3C//DTD SVG 20010904//EN"
 "http://www.w3.org/TR/2001/REC-SVG-20010904/DTD/svg10.dtd">
<svg version="1.0" xmlns="http://www.w3.org/2000/svg"
 width="1254.000000pt" height="1254.000000pt" viewBox="0 0 1254.000000 1254.000000"
 preserveAspectRatio="xMidYMid meet">

<g transform="translate(0.000000,1254.000000) scale(0.100000,-0.100000)"
fill="#000000" stroke="none">
<path d="M9379 8652 c-54 -3 -55 -3 -53 -32 1 -17 -5 -35 -14 -42 -12 -10 -14
-10 -8 0 4 6 2 12 -3 12 -6 0 -11 -5 -11 -10 0 -7 -8 -7 -22 1 -13 6 -20 8
-16 4 4 -4 0 -14 -10 -22 -15 -13 -15 -13 4 -4 17 8 25 6 40 -11 11 -12 14
-18 8 -15 -8 5 -11 -2 -10 -18 0 -14 4 -25 8 -25 4 0 0 -9 -9 -19 -9 -11 -19
-18 -23 -16 -3 2 -6 -7 -6 -20 0 -13 3 -22 6 -20 3 2 6 -19 7 -46 0 -27 7 -56
14 -65 10 -13 10 -17 -1 -24 -8 -5 -17 -7 -19 -4 -3 3 0 9 7 13 10 6 10 10 -2
20 -11 9 -16 9 -22 0 -4 -8 -3 -9 4 -5 7 4 12 2 12 -3 0 -6 -5 -11 -11 -11
-16 0 10 -30 36 -40 19 -9 19 -9 -2 -9 -12 -1 -24 -5 -27 -10 -4 -5 4 -7 16
-5 13 2 17 2 11 -2 -19 -8 -16 -54 2 -54 16 0 17 -3 19 -49 0 -16 4 -33 8 -37
4 -3 5 3 3 16 -4 21 -3 21 13 6 13 -11 22 -12 28 -6 7 7 11 6 11 -4 0 -8 -4
-13 -9 -10 -4 3 -8 -1 -8 -9 0 -15 27 -16 50 -2 9 5 7 0 -4 -13 -20 -23 -32
-29 -21 -12 4 7 -2 9 -18 4 -21 -5 -25 -2 -23 13 2 10 1 12 -1 5 -3 -7 -10 -9
-16 -5 -9 5 -8 2 0 -8 10 -12 10 -18 0 -29 -10 -10 -9 -11 2 -5 10 6 13 4 9
-7 -4 -8 -1 -15 7 -15 7 0 11 6 8 13 -2 6 0 15 5 18 5 3 9 -8 10 -24 0 -18 -4
-29 -11 -27 -7 1 -10 -5 -8 -13 2 -8 4 -21 4 -27 0 -16 12 -6 12 10 1 7 6 11
11 10 15 -3 674 667 674 684 0 8 -541 11 -661 5z m-26 -27 c4 -8 3 -16 -1 -19
-4 -3 -9 4 -9 15 -2 23 3 25 10 4z m-73 -191 c0 -8 -5 -12 -10 -9 -6 4 -8 11
-5 16 9 14 15 11 15 -7z m24 -10 c3 -8 2 -12 -4 -9 -6 3 -10 10 -10 16 0 14 7
11 14 -7z m-9 -44 c-5 -8 -11 -8 -17 -2 -6 6 -7 16 -3 22 5 8 11 8 17 2 6 -6
7 -16 3 -22z m7 -184 c7 4 8 2 4 -5 -9 -13 -26 -5 -25 12 0 9 2 8 6 -1 2 -6
10 -9 15 -6z"/>
<path d="M9246 8639 c2 -4 -2 -9 -8 -12 -7 -2 6 -6 30 -8 24 -3 46 -1 48 3 3
5 2 8 -3 7 -18 -3 -34 2 -29 9 2 4 -6 8 -19 8 -13 0 -22 -3 -19 -7z"/>
<path d="M9254 8530 c0 -9 5 -17 11 -17 6 0 11 8 11 17 0 9 -5 17 -11 17 -6 0
-11 -8 -11 -17z"/>
<path d="M9275 8150 c3 -5 8 -10 11 -10 2 0 4 5 4 10 0 6 -5 10 -11 10 -5 0
-7 -4 -4 -10z"/>
<path d="M3152 6028 l-2 -1918 368 -1 c202 0 377 -2 390 -5 13 -2 33 1 44 7
l21 11 -6 1540 c-6 1394 -5 1539 9 1545 11 4 64 -42 177 -153 246 -241 558
-545 697 -679 109 -104 213 -203 582 -554 121 -116 100 -116 214 2 54 56 244
250 421 430 189 191 321 333 317 339 -4 6 -3 8 3 5 5 -3 45 30 88 74 78 77 83
89 31 69 -15 -5 -26 -6 -26 -1 0 5 -14 12 -30 16 -17 4 -28 11 -24 16 3 5 -2
9 -10 9 -8 0 -18 5 -22 12 -4 7 -3 8 4 4 8 -4 10 -2 6 7 -3 9 -16 13 -34 12
-28 -2 -28 -2 -13 21 8 13 11 24 6 24 -5 0 -18 7 -29 16 -18 15 -18 15 3 5 14
-7 24 -8 28 -1 6 10 5 11 -15 14 -6 0 -14 7 -19 14 -5 8 -11 13 -15 13 -23 -3
-30 0 -17 8 7 5 10 14 6 20 -5 9 -10 9 -21 0 -7 -6 -11 -16 -7 -23 4 -6 -1 -5
-10 3 -9 7 -17 23 -16 35 1 19 2 18 9 -4 7 -22 8 -22 9 -4 1 27 -9 37 -25 23
-8 -7 -14 -6 -20 2 -5 8 -3 9 6 4 9 -6 11 -4 6 4 -5 7 -15 10 -23 7 -11 -4
-13 -2 -9 9 3 8 2 14 -2 14 -20 -3 -30 3 -28 19 0 9 -5 16 -12 14 -8 -1 -11 2
-7 8 3 5 -5 14 -19 20 -14 5 -26 12 -26 15 0 4 5 3 10 0 6 -3 10 -1 10 4 0 6
-7 11 -16 11 -8 0 -12 5 -9 10 3 6 1 10 -6 10 -9 0 -9 3 0 14 8 10 9 16 1 21
-6 4 -9 14 -8 23 2 9 -3 17 -10 17 -8 0 -20 9 -27 19 -10 13 -19 16 -27 10
-12 -8 -22 -9 -51 -5 -4 0 -2 7 5 15 11 13 15 13 24 0 10 -12 12 -10 11 13 -4
68 -16 60 -242 -160 -120 -117 -221 -213 -224 -215 -4 -1 -52 42 -107 95 -359
352 -633 615 -640 615 -5 0 -10 -6 -13 -13 -2 -6 1 -9 7 -6 5 4 15 0 21 -7 10
-12 8 -13 -7 -9 -11 2 -29 0 -41 -6 -14 -8 -21 -8 -21 -1 0 5 -6 10 -14 10 -8
0 -16 6 -19 13 -5 15 -34 16 -55 4 -8 -6 -10 -3 -6 7 4 11 0 14 -15 11 -12 -2
-21 1 -21 7 0 7 -7 3 -16 -8 -8 -10 -13 -13 -9 -6 3 6 2 12 -2 12 -5 0 -15 -6
-22 -12 -11 -11 -11 -9 -2 10 7 12 17 20 23 16 6 -4 8 -3 5 4 -11 16 -40 8
-43 -12 -3 -21 -14 -35 -14 -18 0 7 -7 12 -16 12 -8 0 -13 4 -10 9 4 5 -2 8
-11 6 -10 -1 -17 -8 -15 -15 2 -7 -3 -10 -12 -7 -8 3 -17 3 -21 -1 -3 -3 -17
-7 -30 -8 -17 0 -22 3 -18 15 4 13 2 12 -10 -2 -11 -14 -16 -15 -20 -5 -4 10
-6 9 -7 -2 0 -10 -6 -6 -16 10 -13 21 -15 22 -11 4 3 -13 -1 -21 -9 -21 -7 0
-11 3 -9 7 3 4 -5 7 -18 6 -12 0 -22 4 -22 11 0 6 -4 15 -8 20 -5 4 -7 2 -5
-6 2 -10 -7 -16 -26 -17 -15 -2 -34 -11 -42 -21 -13 -17 -14 -17 -7 1 5 15 3
17 -8 10 -19 -12 -40 -14 -34 -4 3 5 1 11 -5 15 -5 3 -10 -1 -10 -11 0 -13 -3
-14 -15 -4 -8 7 -12 17 -8 24 11 17 12 37 2 30 -5 -3 -7 -9 -4 -14 3 -5 1 -11
-5 -15 -6 -4 -8 -10 -5 -15 3 -5 -4 -7 -16 -5 -13 3 -26 10 -31 17 -5 9 -8 10
-8 1 0 -6 5 -15 10 -18 6 -3 10 -11 10 -16 0 -6 -7 -3 -16 6 -13 13 -19 13
-32 3 -13 -11 -15 -10 -9 4 3 10 1 20 -5 24 -6 4 -8 3 -4 -4 3 -6 2 -13 -4
-17 -5 -3 -10 -1 -10 5 0 6 -5 8 -10 5 -8 -5 -8 -11 0 -20 8 -9 8 -15 0 -20
-6 -4 -9 -1 -8 7 2 9 -6 12 -25 11 -17 -1 -25 2 -21 8 3 6 -3 5 -15 -2 -11 -8
-23 -20 -25 -29 -3 -8 -4 -1 -2 15 4 30 4 30 -11 8 -9 -13 -21 -23 -27 -23 -6
0 -4 5 4 10 13 8 12 10 -2 10 -10 0 -18 -5 -18 -12 0 -6 -6 -4 -13 7 -9 11
-16 14 -21 7 -4 -6 -17 -8 -34 -3 -31 8 -65 3 -57 -8 7 -12 -43 -7 -56 6 -8 8
-3 10 19 8 17 -1 36 1 42 5 7 4 -7 7 -31 5 -24 -1 -43 -7 -42 -12 1 -6 -7 -13
-17 -16 -11 -3 -18 -1 -14 4 3 5 -4 9 -16 9 -12 0 -19 -4 -16 -8 2 -4 -4 -9
-15 -9 -10 -1 -19 3 -19 8 0 6 4 8 8 5 4 -2 9 5 9 17 2 20 1 20 -8 4 -7 -12
-17 -15 -33 -11 -13 3 -27 1 -30 -4 -3 -6 2 -8 13 -5 10 3 21 1 24 -4 6 -10
-40 -10 -50 0 -3 4 -13 1 -21 -6 -11 -8 -14 -8 -9 0 4 6 2 15 -4 19 -8 5 -10
-1 -7 -20 3 -14 1 -29 -4 -32 -4 -3 -8 -2 -7 3 4 21 -2 43 -12 43 -5 0 -7 -6
-4 -12 4 -7 -2 -2 -13 12 -18 22 -20 22 -19 5 2 -21 -20 -27 -40 -12 -14 11
-43 -8 -43 -27 0 -6 7 -3 14 7 7 9 15 17 17 17 9 0 7 -40 -2 -45 -5 -4 -6 2
-2 12 6 15 4 16 -9 5 -12 -9 -18 -10 -23 -2 -15 24 -48 27 -67 8 -11 -11 -27
-18 -36 -16 -15 3 -18 26 -22 208 -3 113 -7 -658 -8 -1712z m1133 1551 c-4 -5
-2 -9 4 -9 5 0 12 6 14 13 4 9 6 9 6 0 1 -19 -18 -26 -34 -13 -16 13 -10 34 6
24 5 -3 7 -10 4 -15z m246 -14 c5 3 6 -1 3 -10 -6 -14 -8 -14 -20 2 -7 10 -13
23 -13 28 0 6 4 2 10 -8 6 -9 14 -15 20 -12z m-785 3 c4 -7 3 -8 -4 -4 -7 4
-12 2 -12 -5 0 -7 -3 -10 -6 -6 -6 5 3 27 11 27 2 0 7 -5 11 -12z m-345 -35
c13 -16 12 -17 -3 -4 -10 7 -18 15 -18 17 0 8 8 3 21 -13z m2592 -320 c4 9 6
9 6 0 1 -19 -16 -24 -29 -8 -7 8 -19 15 -26 15 -15 0 -18 12 -7 24 4 4 18 -4
30 -18 14 -17 23 -21 26 -13z m90 -18 c4 3 5 2 2 -2 -8 -11 -36 -13 -29 -2 3
5 0 9 -5 9 -6 0 -11 5 -11 12 0 6 7 4 18 -5 10 -10 22 -15 25 -12z m-123 11
c0 -3 -4 -8 -10 -11 -5 -3 -10 -1 -10 4 0 6 5 11 10 11 6 0 10 -2 10 -4z m186
-182 c1 -9 0 -13 -4 -10 -3 4 -7 14 -8 22 -1 9 0 13 4 10 3 -4 7 -14 8 -22z
m316 -283 c4 -1 6 -10 5 -21 -1 -20 -12 -17 -12 3 0 7 -5 12 -12 12 -6 0 -14
3 -18 7 -4 3 1 5 12 3 10 -2 21 -4 25 -4z m-38 -96 c-4 -8 -14 -15 -23 -15
-14 1 -13 3 3 15 25 19 27 19 20 0z"/>
<path d="M3394 7638 c-3 -4 -3 -9 0 -9 3 -1 11 -3 16 -4 6 -1 15 -3 20 -4 6 0
10 -7 10 -15 0 -8 5 -18 12 -22 8 -5 9 -2 4 12 -5 10 -9 24 -9 31 0 6 -7 9
-15 5 -9 -3 -13 -1 -9 5 3 5 -1 10 -9 10 -8 0 -17 -4 -20 -9z"/>
<path d="M4361 7614 c0 -11 3 -14 6 -6 3 7 2 16 -1 19 -3 4 -6 -2 -5 -13z"/>
<path d="M4381 7614 c0 -11 3 -14 6 -6 3 7 2 16 -1 19 -3 4 -6 -2 -5 -13z"/>
<path d="M4530 7621 c0 -6 4 -13 10 -16 6 -3 7 1 4 9 -7 18 -14 21 -14 7z"/>
<path d="M3406 7598 c3 -4 9 -8 15 -8 5 0 9 4 9 8 0 5 -7 9 -15 9 -8 0 -12 -4
-9 -9z"/>
<path d="M4773 7588 c-2 -18 0 -20 7 -8 12 18 13 30 2 30 -4 0 -9 -10 -9 -22z"/>
<path d="M7425 7263 c-109 -115 -312 -325 -450 -468 -331 -343 -359 -374 -351
-382 8 -9 77 5 351 72 531 130 595 145 600 145 3 0 5 -673 5 -1495 0 -1349 2
-1495 16 -1495 8 0 77 45 152 100 215 158 453 329 580 416 l82 57 0 1227 c0
1110 2 1228 16 1234 9 3 176 6 372 6 l357 0 326 333 c313 319 429 442 429 452
0 3 -514 5 -1143 5 l-1143 0 -199 -207z"/>
<path d="M6045 7359 c-4 -6 -5 -12 -2 -15 2 -3 7 2 10 11 7 17 1 20 -8 4z"/>
<path d="M4280 5938 l0 -587 28 -21 c15 -12 79 -72 142 -134 63 -62 277 -269
475 -461 198 -192 362 -352 365 -355 133 -132 241 -230 249 -225 8 4 11 186
11 578 l-1 572 -236 225 c-130 124 -316 301 -412 395 -97 93 -246 237 -331
319 -85 82 -185 179 -222 215 l-68 65 0 -586z"/>
</g>
</svg>
